<?xml version='1.0' encoding='UTF-8'?>
<svg baseProfile="tiny" height="130.00px" version="1.2" viewbox="0 0 215.00 130.00" width="215.00px" xmlns="http://www.w3.org/2000/svg">
  <title>H παρτιτούρα μου</title>
  <desc>Created by har1sf0x</desc>
  <polyline class="StaffLines" fill="none" points="0,47.9922 215,47.9922" stroke="#000000" stroke-linejoin="bevel" stroke-width="0.68"/>
  <polyline class="StaffLines" fill="none" points="0,56.4961 215,56.4961" stroke="#000000" stroke-linejoin="bevel" stroke-width="0.68"/>
  <polyline class="StaffLines" fill="none" points="0,65.0 215,65.0" stroke="#000000" stroke-linejoin="bevel" stroke-width="0.68"/>
  <polyline class="StaffLines" fill="none" points="0,73.5039 215,73.5039" stroke="#000000" stroke-linejoin="bevel" stroke-width="0.68"/>
  <polyline class="StaffLines" fill="none" points="0,82.0078 215,82.0078" stroke="#000000" stroke-linejoin="bevel" stroke-width="0.68"/>
  <path class="Note" d="M21.4844,-11.2305 C19.1406,-11.2305 17.4479,-10.4167 16.4063,-8.78906 C15.2344,-7.22656 14.6484,-5.11068 14.6484,-2.44141 C14.6484,0.61849 15.4622,3.25521 17.0898,5.46875 C18.7174,7.61719 20.5078,9.11458 22.4609,9.96094 C24.2188,10.8073 26.0742,11.2305 28.0273,11.2305 C30.306,11.2305 32.0313,10.4167 33.2031,8.78906 C34.3099,7.16146 34.8633,5.04557 34.8633,2.44141 C34.8633,-0.61849 34.0495,-3.25521 32.4219,-5.46875 C30.7943,-7.55208 29.0365,-9.04948 27.1484,-9.96094 C25.2604,-10.8073 23.3724,-11.2305 21.4844,-11.2305 M24.8047,-13.7695 C31.8359,-13.7695 37.6953,-12.4023 42.3828,-9.66797 C47.1354,-6.93359 49.5117,-3.71094 49.5117,0 C49.5117,3.97135 47.0703,7.22656 42.1875,9.76563 C37.3047,12.4349 31.5104,13.7695 24.8047,13.7695 C17.9036,13.7695 12.0443,12.4023 7.22656,9.66797 C2.40885,6.93359 0,3.71094 0,0 C0,-3.97135 2.47396,-7.22656 7.42188,-9.76563 C12.3047,-12.4349 18.099,-13.7695 24.8047,-13.7695" transform="matrix(0.340157,0,0,0.340157,71,73.5039)"/>
  <path class="Accidental-doubleflat" d="M4.58984,-4.10156 L4.58984,3.61328 C4.58984,6.34766 4.72005,8.52865 4.98047,10.1563 C7.12891,8.33333 8.65885,6.96615 9.57031,6.05469 C10.612,5.01302 11.6536,3.58073 12.6953,1.75781 C13.737,-0.0651042 14.2578,-1.88802 14.2578,-3.71094 C14.2578,-5.53385 13.8672,-7.09635 13.0859,-8.39844 C12.3047,-9.70052 11.263,-10.3516 9.96094,-10.3516 C8.39844,-10.3516 7.09635,-9.76563 6.05469,-8.59375 C5.07813,-7.29167 4.58984,-5.79427 4.58984,-4.10156 M0.488281,13.7695 L-0.78125,-45.7031 C0.130208,-46.224 1.04167,-46.4844 1.95313,-46.4844 C2.86458,-46.4844 3.77604,-46.224 4.6875,-45.7031 L3.90625,-11.2305 C6.57552,-13.5091 9.63542,-14.6484 13.0859,-14.6484 C15.625,-14.6484 17.7409,-13.6068 19.4336,-11.5234 C21.1263,-9.4401 21.9727,-7.0638 21.9727,-4.39453 C21.9727,-2.70182 21.4193,-0.911458 20.3125,0.976563 C19.2708,2.73438 18.1641,4.10156 16.9922,5.07813 C16.3411,5.59896 14.681,6.90104 12.0117,8.98438 C11.2305,9.57031 10.3027,10.2539 9.22852,11.0352 C8.1543,11.8164 7.48698,12.3047 7.22656,12.5 C6.77083,12.7604 6.34766,13.2813 5.95703,14.0625 C5.5013,14.7135 4.98047,15.2669 4.39453,15.7227 C3.9388,16.1133 3.38542,16.3086 2.73438,16.3086 C2.08333,16.3086 1.5625,16.0807 1.17188,15.625 C0.716146,15.1693 0.488281,14.5508 0.488281,13.7695" transform="matrix(0.340157,0,0,0.340157,61,73.5039)"/>
  <path class="Accidental-doubleflat" d="M4.58984,-4.10156 L4.58984,3.61328 C4.58984,6.34766 4.72005,8.52865 4.98047,10.1563 C7.12891,8.33333 8.65885,6.96615 9.57031,6.05469 C10.612,5.01302 11.6536,3.58073 12.6953,1.75781 C13.737,-0.0651042 14.2578,-1.88802 14.2578,-3.71094 C14.2578,-5.53385 13.8672,-7.09635 13.0859,-8.39844 C12.3047,-9.70052 11.263,-10.3516 9.96094,-10.3516 C8.39844,-10.3516 7.09635,-9.76563 6.05469,-8.59375 C5.07813,-7.29167 4.58984,-5.79427 4.58984,-4.10156 M0.488281,13.7695 L-0.78125,-45.7031 C0.130208,-46.224 1.04167,-46.4844 1.95313,-46.4844 C2.86458,-46.4844 3.77604,-46.224 4.6875,-45.7031 L3.90625,-11.2305 C6.57552,-13.5091 9.63542,-14.6484 13.0859,-14.6484 C15.625,-14.6484 17.7409,-13.6068 19.4336,-11.5234 C21.1263,-9.4401 21.9727,-7.0638 21.9727,-4.39453 C21.9727,-2.70182 21.4193,-0.911458 20.3125,0.976563 C19.2708,2.73438 18.1641,4.10156 16.9922,5.07813 C16.3411,5.59896 14.681,6.90104 12.0117,8.98438 C11.2305,9.57031 10.3027,10.2539 9.22852,11.0352 C8.1543,11.8164 7.48698,12.3047 7.22656,12.5 C6.77083,12.7604 6.34766,13.2813 5.95703,14.0625 C5.5013,14.7135 4.98047,15.2669 4.39453,15.7227 C3.9388,16.1133 3.38542,16.3086 2.73438,16.3086 C2.08333,16.3086 1.5625,16.0807 1.17188,15.625 C0.716146,15.1693 0.488281,14.5508 0.488281,13.7695" transform="matrix(0.340157,0,0,0.340157,54.0,73.5039)"/>
  <path class="Clef" d="M36.7188,-25.5859 C36.7188,-25.5859 36.9141,-25.5859 37.3047,-25.5859 C37.5651,-25.651 37.793,-25.6836 37.9883,-25.6836 C45.2799,-25.6836 51.2695,-23.112 55.957,-17.9688 C60.6445,-12.8906 62.9883,-6.96615 62.9883,-0.195313 C62.9883,8.20313 59.5052,15.0391 52.5391,20.3125 C50.7161,21.7448 48.3398,22.9167 45.4102,23.8281 C45.7357,28.0599 45.8984,31.4779 45.8984,34.082 C45.8984,34.6029 45.8333,36.4909 45.7031,39.7461 C45.4427,45.8008 43.3594,51.0417 39.4531,55.4688 C35.6771,59.8307 30.9896,62.0117 25.3906,62.0117 C20.1172,62.0117 15.625,60.1563 11.9141,56.4453 C8.20313,52.6693 6.34766,48.112 6.34766,42.7734 C6.34766,39.974 7.42188,37.5977 9.57031,35.6445 C11.7839,33.6914 14.3555,32.7148 17.2852,32.7148 C19.8893,32.7148 22.0703,33.724 23.8281,35.7422 C25.651,37.6302 26.5625,39.974 26.5625,42.7734 C26.5625,45.3125 25.651,47.4935 23.8281,49.3164 C22.0052,51.1393 19.8242,52.0508 17.2852,52.0508 C16.2435,52.0508 15.2344,51.8555 14.2578,51.4648 C17.1224,55.6966 20.931,57.8125 25.6836,57.8125 C30.1758,57.8125 33.8542,55.9896 36.7188,52.3438 C39.7135,48.5677 41.3411,44.1732 41.6016,39.1602 C41.7318,36.0352 41.7969,34.2448 41.7969,33.7891 C41.7969,30.1432 41.6667,27.1484 41.4063,24.8047 C38.151,25.3255 35.2539,25.5859 32.7148,25.5859 C23.6654,25.5859 15.9505,22.0052 9.57031,14.8438 C3.32031,7.61719 0.195313,-0.976563 0.195313,-10.9375 C0.195313,-13.0208 0.390625,-15.1367 0.78125,-17.2852 C1.17188,-19.043 1.66016,-20.9635 2.24609,-23.0469 C2.57161,-24.2188 3.45052,-26.1068 4.88281,-28.7109 C5.40365,-29.4922 5.98958,-30.4688 6.64063,-31.6406 C7.29167,-32.8125 7.7474,-33.5938 8.00781,-33.9844 C8.65885,-35.2865 9.92839,-37.0443 11.8164,-39.2578 C12.3372,-39.8438 12.8743,-40.4948 13.4277,-41.2109 C13.9811,-41.9271 14.4531,-42.513 14.8438,-42.9688 C15.2344,-43.4245 15.5273,-43.7826 15.7227,-44.043 C15.918,-44.3034 17.3828,-46.0286 20.1172,-49.2188 C20.7682,-49.8698 21.403,-50.5697 22.0215,-51.3184 C22.64,-52.0671 23.1445,-52.653 23.5352,-53.0762 C23.9258,-53.4993 24.2188,-53.8086 24.4141,-54.0039 C22.0703,-61.7513 20.6055,-67.9362 20.0195,-72.5586 C19.5638,-76.2695 19.3359,-81.3477 19.3359,-87.793 C19.3359,-93.457 20.638,-98.763 23.2422,-103.711 C25.7813,-108.854 29.3294,-113.053 33.8867,-116.309 C34.1471,-116.504 34.4727,-116.602 34.8633,-116.602 C35.319,-116.602 35.6445,-116.504 35.8398,-116.309 C39.3555,-112.077 42.3828,-106.576 44.9219,-99.8047 C47.526,-93.0339 48.8281,-86.8815 48.8281,-81.3477 C48.8281,-75.0977 47.3307,-69.2383 44.3359,-63.7695 C40.9505,-57.9753 36.5885,-51.9857 31.25,-45.8008 C32.6172,-41.5039 34.4401,-34.7656 36.7188,-25.5859 M45.0195,19.8242 C48.4049,18.5872 51.0417,16.4714 52.9297,13.4766 C55.013,10.612 56.0547,7.38932 56.0547,3.80859 C56.0547,-0.813802 54.4922,-4.91536 51.3672,-8.49609 C48.1771,-12.207 44.1081,-14.2904 39.1602,-14.7461 C41.9596,-1.00911 43.9128,10.5143 45.0195,19.8242 M7.22656,-2.73438 C7.22656,3.71094 9.83073,9.375 15.0391,14.2578 C20.3776,19.0104 26.3672,21.3867 33.0078,21.3867 C35.7422,21.3867 38.4115,21.1914 41.0156,20.8008 C39.974,10.9049 37.9232,-0.94401 34.8633,-14.7461 C31.1523,-14.3555 28.1901,-13.0534 25.9766,-10.8398 C23.8281,-8.5612 22.7539,-5.98958 22.7539,-3.125 C22.7539,1.82292 25.3906,5.82682 30.6641,8.88672 C31.1198,9.34245 31.3477,9.83073 31.3477,10.3516 C31.3477,10.8724 31.1198,11.3607 30.6641,11.8164 C30.2734,12.2721 29.7852,12.5 29.1992,12.5 C29.1341,12.5 28.8411,12.4349 28.3203,12.3047 C24.6094,10.2865 21.7448,7.68229 19.7266,4.49219 C17.8385,1.10677 16.8945,-2.3112 16.8945,-5.76172 C16.8945,-10.2539 18.2943,-14.3229 21.0938,-17.9688 C24.0234,-21.6146 27.832,-23.9583 32.5195,-25 C30.6966,-32.2917 29.1992,-37.9883 28.0273,-42.0898 C26.9857,-40.918 25.7324,-39.502 24.2676,-37.8418 C22.8027,-36.1816 21.9401,-35.1888 21.6797,-34.8633 C19.3359,-31.8034 17.5456,-29.4271 16.3086,-27.7344 C14.0951,-24.6745 12.4674,-22.0378 11.4258,-19.8242 C10.319,-17.3503 9.34245,-14.6484 8.49609,-11.7188 C7.64974,-8.91927 7.22656,-5.92448 7.22656,-2.73438 M39.8438,-102.051 C34.9609,-99.6419 31.1198,-96.1914 28.3203,-91.6992 C25.4557,-87.0768 24.0234,-82.0964 24.0234,-76.7578 C24.0234,-72.0703 25.1953,-65.7552 27.5391,-57.8125 C32.2266,-63.4766 35.7422,-68.7174 38.0859,-73.5352 C40.5599,-78.6133 41.7969,-83.9193 41.7969,-89.4531 C41.7969,-93.6198 41.1458,-97.819 39.8438,-102.051" transform="matrix(0.340157,0,0,0.340157,2,73.5039)"/>
</svg>
